<?xml version="1.0" encoding="UTF-8" standalone="no"?>
<!DOCTYPE svg PUBLIC "-//W3C//DTD SVG 1.1//EN"
 "http://www.w3.org/Graphics/SVG/1.1/DTD/svg11.dtd">
<!-- Generated by graphviz version 2.43.0 (0)
 -->
<!-- Title: RF06_02 Pages: 1 -->
<svg width="372pt" height="960pt"
 viewBox="0.00 0.00 372.00 960.08" xmlns="http://www.w3.org/2000/svg" xmlns:xlink="http://www.w3.org/1999/xlink">
<g id="graph0" class="graph" transform="scale(1 1) rotate(0) translate(4 956.08)">
<title>RF06_02</title>
<polygon fill="white" stroke="transparent" points="-4,4 -4,-956.08 368,-956.08 368,4 -4,4"/>
<text text-anchor="middle" x="182" y="-937.68" font-family="Helvetica,sans-Serif" font-size="13.00">RF&#45;06 · ALGORITMO — greedy por slot + bonus pass</text>
<!-- In -->
<g id="node1" class="node">
<title>In</title>
<ellipse fill="#f3e8ff" stroke="#7c3aed" cx="185.25" cy="-906.04" rx="70.92" ry="24.08"/>
<text text-anchor="middle" x="185.25" y="-909.04" font-family="Helvetica,sans-Serif" font-size="10.00">Inputs cargados</text>
<text text-anchor="middle" x="185.25" y="-898.04" font-family="Helvetica,sans-Serif" font-size="10.00">(de RF&#45;06_01)</text>
</g>
<!-- GLoop -->
<g id="node2" class="node">
<title>GLoop</title>
<path fill="#cffafe" stroke="#0e7490" d="M250.75,-845C250.75,-845 119.75,-845 119.75,-845 113.75,-845 107.75,-839 107.75,-833 107.75,-833 107.75,-821 107.75,-821 107.75,-815 113.75,-809 119.75,-809 119.75,-809 250.75,-809 250.75,-809 256.75,-809 262.75,-815 262.75,-821 262.75,-821 262.75,-833 262.75,-833 262.75,-839 256.75,-845 250.75,-845"/>
<text text-anchor="middle" x="185.25" y="-824.5" font-family="Helvetica,sans-Serif" font-size="10.00">GREEDY: para cada slot 1&#45;6</text>
</g>
<!-- In&#45;&gt;GLoop -->
<g id="edge1" class="edge">
<title>In&#45;&gt;GLoop</title>
<path fill="none" stroke="#374151" d="M185.25,-881.93C185.25,-873.61 185.25,-864.14 185.25,-855.49"/>
<polygon fill="#374151" stroke="#374151" points="188.75,-855.46 185.25,-845.46 181.75,-855.46 188.75,-855.46"/>
</g>
<!-- Score1 -->
<g id="node3" class="node">
<title>Score1</title>
<path fill="#cffafe" stroke="#0e7490" d="M243.75,-772C243.75,-772 126.75,-772 126.75,-772 120.75,-772 114.75,-766 114.75,-760 114.75,-760 114.75,-739 114.75,-739 114.75,-733 120.75,-727 126.75,-727 126.75,-727 243.75,-727 243.75,-727 249.75,-727 255.75,-733 255.75,-739 255.75,-739 255.75,-760 255.75,-760 255.75,-766 249.75,-772 243.75,-772"/>
<text text-anchor="middle" x="185.25" y="-758" font-family="Helvetica,sans-Serif" font-size="10.00">Score local de cada</text>
<text text-anchor="middle" x="185.25" y="-747" font-family="Helvetica,sans-Serif" font-size="10.00">candidato del inventario</text>
<text text-anchor="middle" x="185.25" y="-736" font-family="Helvetica,sans-Serif" font-size="10.00">(scoring engine)</text>
</g>
<!-- GLoop&#45;&gt;Score1 -->
<g id="edge2" class="edge">
<title>GLoop&#45;&gt;Score1</title>
<path fill="none" stroke="#374151" d="M185.25,-808.87C185.25,-800.97 185.25,-791.32 185.25,-782.17"/>
<polygon fill="#374151" stroke="#374151" points="188.75,-782.17 185.25,-772.17 181.75,-782.17 188.75,-782.17"/>
</g>
<!-- TopK -->
<g id="node4" class="node">
<title>TopK</title>
<path fill="#cffafe" stroke="#0e7490" d="M237.75,-690C237.75,-690 132.75,-690 132.75,-690 126.75,-690 120.75,-684 120.75,-678 120.75,-678 120.75,-666 120.75,-666 120.75,-660 126.75,-654 132.75,-654 132.75,-654 237.75,-654 237.75,-654 243.75,-654 249.75,-660 249.75,-666 249.75,-666 249.75,-678 249.75,-678 249.75,-684 243.75,-690 237.75,-690"/>
<text text-anchor="middle" x="185.25" y="-675" font-family="Helvetica,sans-Serif" font-size="10.00">Top&#45;K por slot (K=8)</text>
<text text-anchor="middle" x="185.25" y="-664" font-family="Helvetica,sans-Serif" font-size="10.00">→ candidate pool 6×8</text>
</g>
<!-- Score1&#45;&gt;TopK -->
<g id="edge3" class="edge">
<title>Score1&#45;&gt;TopK</title>
<path fill="none" stroke="#374151" d="M185.25,-726.66C185.25,-718.58 185.25,-709.3 185.25,-700.76"/>
<polygon fill="#374151" stroke="#374151" points="188.75,-700.48 185.25,-690.48 181.75,-700.48 188.75,-700.48"/>
</g>
<!-- BPass -->
<g id="node5" class="node">
<title>BPass</title>
<path fill="#cffafe" stroke="#0e7490" d="M253.75,-617C253.75,-617 116.75,-617 116.75,-617 110.75,-617 104.75,-611 104.75,-605 104.75,-605 104.75,-593 104.75,-593 104.75,-587 110.75,-581 116.75,-581 116.75,-581 253.75,-581 253.75,-581 259.75,-581 265.75,-587 265.75,-593 265.75,-593 265.75,-605 265.75,-605 265.75,-611 259.75,-617 253.75,-617"/>
<text text-anchor="middle" x="185.25" y="-602" font-family="Helvetica,sans-Serif" font-size="10.00">BONUS PASS — explorar</text>
<text text-anchor="middle" x="185.25" y="-591" font-family="Helvetica,sans-Serif" font-size="10.00">combinaciones de set bonus</text>
</g>
<!-- TopK&#45;&gt;BPass -->
<g id="edge4" class="edge">
<title>TopK&#45;&gt;BPass</title>
<path fill="none" stroke="#374151" d="M185.25,-653.81C185.25,-645.79 185.25,-636.05 185.25,-627.07"/>
<polygon fill="#374151" stroke="#374151" points="188.75,-627.03 185.25,-617.03 181.75,-627.03 188.75,-627.03"/>
</g>
<!-- C42 -->
<g id="node6" class="node">
<title>C42</title>
<path fill="#e0f2fe" stroke="#0369a1" d="M113.25,-544C113.25,-544 17.25,-544 17.25,-544 11.25,-544 5.25,-538 5.25,-532 5.25,-532 5.25,-520 5.25,-520 5.25,-514 11.25,-508 17.25,-508 17.25,-508 113.25,-508 113.25,-508 119.25,-508 125.25,-514 125.25,-520 125.25,-520 125.25,-532 125.25,-532 125.25,-538 119.25,-544 113.25,-544"/>
<text text-anchor="middle" x="65.25" y="-529" font-family="Helvetica,sans-Serif" font-size="10.00">4pc + 2pc</text>
<text text-anchor="middle" x="65.25" y="-518" font-family="Helvetica,sans-Serif" font-size="10.00">(set primario + sec)</text>
</g>
<!-- BPass&#45;&gt;C42 -->
<g id="edge5" class="edge">
<title>BPass&#45;&gt;C42</title>
<path fill="none" stroke="#374151" d="M156.51,-580.99C140.45,-571.49 120.24,-559.54 102.93,-549.29"/>
<polygon fill="#374151" stroke="#374151" points="104.56,-546.19 94.17,-544.11 101,-552.22 104.56,-546.19"/>
</g>
<!-- C222 -->
<g id="node7" class="node">
<title>C222</title>
<path fill="#e0f2fe" stroke="#0369a1" d="M215.25,-544C215.25,-544 155.25,-544 155.25,-544 149.25,-544 143.25,-538 143.25,-532 143.25,-532 143.25,-520 143.25,-520 143.25,-514 149.25,-508 155.25,-508 155.25,-508 215.25,-508 215.25,-508 221.25,-508 227.25,-514 227.25,-520 227.25,-520 227.25,-532 227.25,-532 227.25,-538 221.25,-544 215.25,-544"/>
<text text-anchor="middle" x="185.25" y="-529" font-family="Helvetica,sans-Serif" font-size="10.00">2 + 2 + 2</text>
<text text-anchor="middle" x="185.25" y="-518" font-family="Helvetica,sans-Serif" font-size="10.00">(stats puros)</text>
</g>
<!-- BPass&#45;&gt;C222 -->
<g id="edge6" class="edge">
<title>BPass&#45;&gt;C222</title>
<path fill="none" stroke="#374151" d="M185.25,-580.81C185.25,-572.79 185.25,-563.05 185.25,-554.07"/>
<polygon fill="#374151" stroke="#374151" points="188.75,-554.03 185.25,-544.03 181.75,-554.03 188.75,-554.03"/>
</g>
<!-- C33 -->
<g id="node8" class="node">
<title>C33</title>
<path fill="#e0f2fe" stroke="#0369a1" d="M346.75,-544C346.75,-544 257.75,-544 257.75,-544 251.75,-544 245.75,-538 245.75,-532 245.75,-532 245.75,-520 245.75,-520 245.75,-514 251.75,-508 257.75,-508 257.75,-508 346.75,-508 346.75,-508 352.75,-508 358.75,-514 358.75,-520 358.75,-520 358.75,-532 358.75,-532 358.75,-538 352.75,-544 346.75,-544"/>
<text text-anchor="middle" x="302.25" y="-529" font-family="Helvetica,sans-Serif" font-size="10.00">3 + 3</text>
<text text-anchor="middle" x="302.25" y="-518" font-family="Helvetica,sans-Serif" font-size="10.00">(casos especiales)</text>
</g>
<!-- BPass&#45;&gt;C33 -->
<g id="edge7" class="edge">
<title>BPass&#45;&gt;C33</title>
<path fill="none" stroke="#374151" d="M213.27,-580.99C228.79,-571.58 248.27,-559.76 265.05,-549.57"/>
<polygon fill="#374151" stroke="#374151" points="267.32,-552.29 274.05,-544.11 263.68,-546.31 267.32,-552.29"/>
</g>
<!-- ScoreF -->
<g id="node9" class="node">
<title>ScoreF</title>
<path fill="#cffafe" stroke="#0e7490" d="M240.25,-471C240.25,-471 130.25,-471 130.25,-471 124.25,-471 118.25,-465 118.25,-459 118.25,-459 118.25,-427 118.25,-427 118.25,-421 124.25,-415 130.25,-415 130.25,-415 240.25,-415 240.25,-415 246.25,-415 252.25,-421 252.25,-427 252.25,-427 252.25,-459 252.25,-459 252.25,-465 246.25,-471 240.25,-471"/>
<text text-anchor="middle" x="185.25" y="-457" font-family="Helvetica,sans-Serif" font-size="10.00">Score conjunto =</text>
<text text-anchor="middle" x="185.25" y="-446" font-family="Helvetica,sans-Serif" font-size="10.00">Σ slots + bonus_set</text>
<text text-anchor="middle" x="185.25" y="-435" font-family="Helvetica,sans-Serif" font-size="10.00">+ bonus_thresholds_PJ</text>
<text text-anchor="middle" x="185.25" y="-424" font-family="Helvetica,sans-Serif" font-size="10.00">(ATK/IMP/PEN caps)</text>
</g>
<!-- C42&#45;&gt;ScoreF -->
<g id="edge8" class="edge">
<title>C42&#45;&gt;ScoreF</title>
<path fill="none" stroke="#374151" d="M90.7,-507.82C104.05,-498.81 120.86,-487.46 136.6,-476.84"/>
<polygon fill="#374151" stroke="#374151" points="138.87,-479.53 145.2,-471.04 134.95,-473.73 138.87,-479.53"/>
</g>
<!-- C222&#45;&gt;ScoreF -->
<g id="edge9" class="edge">
<title>C222&#45;&gt;ScoreF</title>
<path fill="none" stroke="#374151" d="M185.25,-507.82C185.25,-500.06 185.25,-490.57 185.25,-481.3"/>
<polygon fill="#374151" stroke="#374151" points="188.75,-481.04 185.25,-471.04 181.75,-481.04 188.75,-481.04"/>
</g>
<!-- C33&#45;&gt;ScoreF -->
<g id="edge10" class="edge">
<title>C33&#45;&gt;ScoreF</title>
<path fill="none" stroke="#374151" d="M277.44,-507.82C264.42,-498.81 248.03,-487.46 232.69,-476.84"/>
<polygon fill="#374151" stroke="#374151" points="234.51,-473.85 224.3,-471.04 230.53,-479.6 234.51,-473.85"/>
</g>
<!-- Delta -->
<g id="node10" class="node">
<title>Delta</title>
<path fill="#e0f2fe" stroke="#0369a1" d="M218.25,-378C218.25,-378 152.25,-378 152.25,-378 146.25,-378 140.25,-372 140.25,-366 140.25,-366 140.25,-354 140.25,-354 140.25,-348 146.25,-342 152.25,-342 152.25,-342 218.25,-342 218.25,-342 224.25,-342 230.25,-348 230.25,-354 230.25,-354 230.25,-366 230.25,-366 230.25,-372 224.25,-378 218.25,-378"/>
<text text-anchor="middle" x="185.25" y="-363" font-family="Helvetica,sans-Serif" font-size="10.00">Delta vs build</text>
<text text-anchor="middle" x="185.25" y="-352" font-family="Helvetica,sans-Serif" font-size="10.00">actual del PJ</text>
</g>
<!-- ScoreF&#45;&gt;Delta -->
<g id="edge11" class="edge">
<title>ScoreF&#45;&gt;Delta</title>
<path fill="none" stroke="#374151" d="M185.25,-414.58C185.25,-406.06 185.25,-396.67 185.25,-388.17"/>
<polygon fill="#374151" stroke="#374151" points="188.75,-388 185.25,-378 181.75,-388 188.75,-388"/>
</g>
<!-- CheckSwap -->
<g id="node11" class="node">
<title>CheckSwap</title>
<polygon fill="#fef3c7" stroke="#a16207" points="185.25,-305 89.25,-271 185.25,-237 281.25,-271 185.25,-305"/>
<text text-anchor="middle" x="185.25" y="-274" font-family="Helvetica,sans-Serif" font-size="10.00">¿Discos vienen</text>
<text text-anchor="middle" x="185.25" y="-263" font-family="Helvetica,sans-Serif" font-size="10.00">de otros PJs?</text>
</g>
<!-- Delta&#45;&gt;CheckSwap -->
<g id="edge12" class="edge">
<title>Delta&#45;&gt;CheckSwap</title>
<path fill="none" stroke="#374151" d="M185.25,-341.81C185.25,-334.1 185.25,-324.63 185.25,-315.17"/>
<polygon fill="#374151" stroke="#374151" points="188.75,-315 185.25,-305 181.75,-315 188.75,-315"/>
</g>
<!-- DualDelta -->
<g id="node12" class="node">
<title>DualDelta</title>
<path fill="#cffafe" stroke="#0e7490" d="M185.75,-191C185.75,-191 86.75,-191 86.75,-191 80.75,-191 74.75,-185 74.75,-179 74.75,-179 74.75,-158 74.75,-158 74.75,-152 80.75,-146 86.75,-146 86.75,-146 185.75,-146 185.75,-146 191.75,-146 197.75,-152 197.75,-158 197.75,-158 197.75,-179 197.75,-179 197.75,-185 191.75,-191 185.75,-191"/>
<text text-anchor="middle" x="136.25" y="-177" font-family="Helvetica,sans-Serif" font-size="10.00">Calcular delta dual:</text>
<text text-anchor="middle" x="136.25" y="-166" font-family="Helvetica,sans-Serif" font-size="10.00">lo que pierde origen,</text>
<text text-anchor="middle" x="136.25" y="-155" font-family="Helvetica,sans-Serif" font-size="10.00">lo que gana destino</text>
</g>
<!-- CheckSwap&#45;&gt;DualDelta -->
<g id="edge13" class="edge">
<title>CheckSwap&#45;&gt;DualDelta</title>
<path fill="none" stroke="#374151" d="M171.47,-241.74C165.18,-228.84 157.72,-213.54 151.29,-200.35"/>
<polygon fill="#374151" stroke="#374151" points="154.35,-198.64 146.82,-191.18 148.06,-201.7 154.35,-198.64"/>
<text text-anchor="middle" x="163.75" y="-211.8" font-family="Helvetica,sans-Serif" font-size="9.00">sí</text>
</g>
<!-- Sort -->
<g id="node13" class="node">
<title>Sort</title>
<path fill="#cffafe" stroke="#0e7490" d="M242.25,-109C242.25,-109 128.25,-109 128.25,-109 122.25,-109 116.25,-103 116.25,-97 116.25,-97 116.25,-85 116.25,-85 116.25,-79 122.25,-73 128.25,-73 128.25,-73 242.25,-73 242.25,-73 248.25,-73 254.25,-79 254.25,-85 254.25,-85 254.25,-97 254.25,-97 254.25,-103 248.25,-109 242.25,-109"/>
<text text-anchor="middle" x="185.25" y="-94" font-family="Helvetica,sans-Serif" font-size="10.00">Ordenar combinaciones</text>
<text text-anchor="middle" x="185.25" y="-83" font-family="Helvetica,sans-Serif" font-size="10.00">globalmente por score</text>
</g>
<!-- CheckSwap&#45;&gt;Sort -->
<g id="edge14" class="edge">
<title>CheckSwap&#45;&gt;Sort</title>
<path fill="none" stroke="#374151" d="M196.1,-240.63C203.99,-215.48 212.31,-178.3 206.25,-146 204.52,-136.76 201.25,-127.07 197.8,-118.5"/>
<polygon fill="#374151" stroke="#374151" points="200.9,-116.84 193.75,-109.03 194.47,-119.6 200.9,-116.84"/>
<text text-anchor="middle" x="215.25" y="-166.3" font-family="Helvetica,sans-Serif" font-size="9.00">no</text>
</g>
<!-- DualDelta&#45;&gt;Sort -->
<g id="edge15" class="edge">
<title>DualDelta&#45;&gt;Sort</title>
<path fill="none" stroke="#374151" d="M150.42,-145.66C156.02,-137.04 162.5,-127.06 168.33,-118.06"/>
<polygon fill="#374151" stroke="#374151" points="171.4,-119.77 173.9,-109.48 165.52,-115.96 171.4,-119.77"/>
</g>
<!-- Out -->
<g id="node14" class="node">
<title>Out</title>
<path fill="#dcfce7" stroke="#15803d" d="M234.25,-36C234.25,-36 136.25,-36 136.25,-36 130.25,-36 124.25,-30 124.25,-24 124.25,-24 124.25,-12 124.25,-12 124.25,-6 130.25,0 136.25,0 136.25,0 234.25,0 234.25,0 240.25,0 246.25,-6 246.25,-12 246.25,-12 246.25,-24 246.25,-24 246.25,-30 240.25,-36 234.25,-36"/>
<text text-anchor="middle" x="185.25" y="-21" font-family="Helvetica,sans-Serif" font-size="10.00">Top 3 builds</text>
<text text-anchor="middle" x="185.25" y="-10" font-family="Helvetica,sans-Serif" font-size="10.00">+ desglose + swaps</text>
</g>
<!-- Sort&#45;&gt;Out -->
<g id="edge16" class="edge">
<title>Sort&#45;&gt;Out</title>
<path fill="none" stroke="#374151" d="M185.25,-72.81C185.25,-64.79 185.25,-55.05 185.25,-46.07"/>
<polygon fill="#374151" stroke="#374151" points="188.75,-46.03 185.25,-36.03 181.75,-46.03 188.75,-46.03"/>
</g>
</g>
</svg>
